<?xml version="1.0" encoding="utf-8"?>
<!-- Generator: Adobe Illustrator 24.0.3, SVG Export Plug-In . SVG Version: 6.00 Build 0)  -->
<svg version="1.1" id="Layer_1" xmlns="http://www.w3.org/2000/svg" xmlns:xlink="http://www.w3.org/1999/xlink" x="0px" y="0px"
	 viewBox="0 0 360 135.9" style="enable-background:new 0 0 360 135.9;" xml:space="preserve">
<style type="text/css">
	.st0{fill:#2A5A6F;}
</style>
<g>
	<g>
		<path class="st0" d="M65.9,46.3v-13c0-6.6-3.3-9.9-9.9-9.9H44.4c-6.6,0-9.9,3.3-9.9,9.9v55.9c0,6.6,3.3,9.9,9.9,9.9H56
			c6.6,0,9.9-3.3,9.9-9.9v-13h-9.1v11.7c0,1.7-0.3,2.4-0.6,2.7c-0.3,0.3-1,0.6-2.7,0.6h-6.6c-1.9,0-2.6-0.4-2.8-0.6
			c-0.3-0.3-0.6-1-0.6-2.7V34.6c0-1.9,0.3-2.6,0.5-2.8s0.8-0.5,2.8-0.5h6.6c1.8,0,2.5,0.3,2.7,0.6c0.3,0.2,0.6,0.9,0.6,2.8v11.7
			L65.9,46.3L65.9,46.3z"/>
		<path class="st0" d="M75,77.1v12c0,6.6,3.3,9.9,9.9,9.9h10.5c6.6,0,9.9-3.3,9.9-9.9V66c0-6.6-3.3-9.9-9.9-9.9h-8.2
			c-1.9,0-2.6-0.4-2.8-0.6c-0.3-0.3-0.6-1-0.6-2.7V34.6c0-1.9,0.3-2.6,0.5-2.8s0.8-0.5,2.8-0.5h5.5c1.9,0,2.6,0.3,2.8,0.5
			c0.2,0.2,0.5,0.8,0.5,2.8v10.6h9.1V33.3c0-6.6-3.3-9.9-9.9-9.9H84.6c-6.6,0-9.9,3.3-9.9,9.9v20.8c0,6.6,3.3,9.9,9.9,9.9h8.2
			c1.8,0,2.5,0.3,2.7,0.6c0.3,0.2,0.6,0.9,0.6,2.8v20.4c0,1.9-0.4,2.6-0.6,2.8c-0.3,0.2-1,0.6-2.7,0.6h-5.4c-1.9,0-2.6-0.3-2.8-0.5
			c-0.2-0.2-0.5-0.8-0.5-2.8V77.1H75z"/>
		<path class="st0" d="M114.3,77.1v12c0,6.6,3.3,9.9,9.9,9.9h10.5c6.6,0,9.9-3.3,9.9-9.9V66c0-6.6-3.3-9.9-9.9-9.9h-8.2
			c-1.9,0-2.6-0.4-2.8-0.6c-0.3-0.3-0.6-1-0.6-2.7V34.6c0-1.9,0.3-2.6,0.5-2.8c0.2-0.2,0.8-0.5,2.8-0.5h5.5c1.9,0,2.6,0.3,2.8,0.5
			c0.2,0.2,0.5,0.8,0.5,2.8v10.6h9.1V33.3c0-6.6-3.3-9.9-9.9-9.9h-10.6c-6.6,0-9.9,3.3-9.9,9.9v20.8c0,6.6,3.3,9.9,9.9,9.9h8.2
			c1.8,0,2.5,0.3,2.7,0.6c0.3,0.2,0.6,0.9,0.6,2.8v20.4c0,1.9-0.4,2.6-0.6,2.8c-0.3,0.2-1,0.6-2.7,0.6h-5.4c-1.9,0-2.6-0.3-2.8-0.5
			c-0.2-0.2-0.5-0.8-0.5-2.8V77.1H114.3z"/>
		<path class="st0" d="M219.2,74.7V62.4c0-6.2-3.2-9.4-9.4-9.4h-11.1c-6.2,0-9.4,3.2-9.4,9.4v40.5c0,6.2,3.2,9.4,9.4,9.4h11.1
			c6.2,0,9.4-3.2,9.4-9.4V90.5h-8.7v11.1c0,1.6-0.3,2.3-0.6,2.6c-0.3,0.3-0.9,0.6-2.6,0.6h-6.3c-1.8,0-2.4-0.3-2.6-0.5
			c-0.2-0.3-0.5-0.9-0.5-2.6v-38c0-1.8,0.3-2.4,0.5-2.6c0.2-0.2,0.8-0.5,2.6-0.5h6.3c1.7,0,2.3,0.3,2.6,0.5c0.2,0.2,0.6,0.8,0.6,2.6
			v11.1L219.2,74.7L219.2,74.7z"/>
		<path class="st0" d="M259.1,62.4c0-6.2-3.2-9.4-9.4-9.4H238c-6.2,0-9.4,3.2-9.4,9.4v25.8c0,6.2,3.2,9.4,9.4,9.4h11.6
			c6.2,0,9.4-3.2,9.4-9.4L259.1,62.4L259.1,62.4z M250.5,86.9c0,1.8-0.3,2.4-0.5,2.6c-0.3,0.2-0.9,0.5-2.6,0.5h-7.1
			c-1.7,0-2.3-0.3-2.6-0.5c-0.2-0.2-0.6-0.8-0.6-2.6V63.6c0-1.8,0.3-2.4,0.6-2.6c0.3-0.2,0.9-0.5,2.6-0.5h7.1c1.7,0,2.3,0.3,2.6,0.5
			c0.2,0.2,0.5,0.8,0.5,2.6L250.5,86.9L250.5,86.9z"/>
		<path class="st0" d="M297.6,112.1V62.4c0-6.2-3.2-9.4-9.4-9.4h-4.6c-2.7,0-4.7,0.8-5.9,2.4v-2.4h-8.7v59.2h8.7V64.2
			c0-1.4,0.3-2.4,0.8-2.9c0.5-0.5,1.4-0.8,2.7-0.8h4.6c1.8,0,2.4,0.3,2.6,0.5c0.2,0.3,0.5,0.9,0.5,2.6v48.5L297.6,112.1L297.6,112.1
			z"/>
		<polygon class="st0" points="336.7,60.5 336.7,52.9 308.1,52.9 308.1,112.1 316.8,112.1 316.8,84.7 332.1,84.7 332.1,77.1 
			316.8,77.1 316.8,60.5 		"/>
		<rect x="228.6" y="104.7" class="st0" width="30.5" height="7.5"/>
		<polygon class="st0" points="350.9,40.4 350.9,126.8 179.4,126.8 179.4,135.9 360,135.9 360,40.4 		"/>
		<polygon class="st0" points="160.9,0 12.1,0 12.1,110 21.2,110 21.2,9.1 160.9,9.1 		"/>
		<polygon class="st0" points="345.5,27.7 174.4,27.7 174.4,12.8 165.3,12.8 165.3,27.7 165.3,27.7 165.3,113.9 25.1,113.9 
			25.1,123 174.4,123 174.4,36.9 345.5,36.9 		"/>
	</g>
</g>
</svg>
